# Blender 4.2.1 LTS
# www.blender.org
mtllib Option1_P.mtl
o Cube.017
v 0.319284 -0.198228 1.000000
v 0.319284 0.005915 1.000000
v 0.718673 -0.198228 1.000000
v 0.718673 0.005915 1.000000
v 0.319284 -0.198228 -1.000000
v 0.319284 0.005915 -1.000000
v 0.718673 -0.198228 -1.000000
v 0.718673 0.005915 -1.000000
v -1.104569 -0.221267 0.818638
v -1.104569 0.029506 0.818638
v -1.104569 -0.221267 1.103755
v -1.104569 0.029506 1.103755
v 0.827373 -0.221267 0.818638
v 0.827373 0.029506 0.818638
v 0.827373 -0.221267 1.103755
v 0.827373 0.029506 1.103755
v -1.104569 -0.221267 -0.818638
v -1.104569 0.029506 -0.818638
v -1.104569 -0.221267 -1.103756
v -1.104569 0.029506 -1.103756
v 0.827373 -0.221267 -0.818638
v 0.827373 0.029506 -0.818638
v 0.827373 -0.221267 -1.103756
v 0.827373 0.029506 -1.103756
v -0.135957 -0.198228 1.000000
v -0.135957 0.005915 1.000000
v 0.263432 -0.198228 1.000000
v 0.263432 0.005915 1.000000
v -0.135957 -0.198228 -1.000000
v -0.135957 0.005915 -1.000000
v 0.263432 -0.198228 -1.000000
v 0.263432 0.005915 -1.000000
v -0.591110 -0.198228 1.000000
v -0.591110 0.005915 1.000000
v -0.191721 -0.198228 1.000000
v -0.191721 0.005915 1.000000
v -0.591111 -0.198228 -1.000000
v -0.591111 0.005915 -1.000000
v -0.191722 -0.198228 -1.000000
v -0.191722 0.005915 -1.000000
v -1.046352 -0.198228 1.000000
v -1.046352 0.005915 1.000000
v -0.646963 -0.198228 1.000000
v -0.646963 0.005915 1.000000
v -1.046352 -0.198228 -1.000000
v -1.046352 0.005915 -1.000000
v -0.646963 -0.198228 -1.000000
v -0.646963 0.005915 -1.000000
vn -0.0000 -0.0000 -1.0000
vn -1.0000 -0.0000 -0.0000
vn -0.0000 -0.0000 1.0000
vn 1.0000 -0.0000 -0.0000
vn -0.0000 1.0000 -0.0000
vn -0.0000 -1.0000 -0.0000
vt 0.375000 0.000000
vt 0.625000 0.000000
vt 0.625000 0.250000
vt 0.375000 0.250000
vt 0.625000 0.500000
vt 0.375000 0.500000
vt 0.625000 0.750000
vt 0.375000 0.750000
vt 0.625000 1.000000
vt 0.375000 1.000000
vt 0.125000 0.500000
vt 0.125000 0.750000
vt 0.875000 0.500000
vt 0.875000 0.750000
s 0
usemtl 
f 1/1/1 2/2/1 4/3/1 3/4/1
f 3/4/2 4/3/2 8/5/2 7/6/2
f 7/6/3 8/5/3 6/7/3 5/8/3
f 5/8/4 6/7/4 2/9/4 1/10/4
f 3/11/5 7/6/5 5/8/5 1/12/5
f 8/5/6 4/13/6 2/14/6 6/7/6
f 9/1/4 10/2/4 12/3/4 11/4/4
f 11/4/1 12/3/1 16/5/1 15/6/1
f 15/6/2 16/5/2 14/7/2 13/8/2
f 13/8/3 14/7/3 10/9/3 9/10/3
f 11/11/5 15/6/5 13/8/5 9/12/5
f 16/5/6 12/13/6 10/14/6 14/7/6
f 17/1/4 19/4/4 20/3/4 18/2/4
f 19/4/3 23/6/3 24/5/3 20/3/3
f 23/6/2 21/8/2 22/7/2 24/5/2
f 21/8/1 17/10/1 18/9/1 22/7/1
f 19/11/5 17/12/5 21/8/5 23/6/5
f 24/5/6 22/7/6 18/14/6 20/13/6
f 25/1/1 26/2/1 28/3/1 27/4/1
f 27/4/2 28/3/2 32/5/2 31/6/2
f 31/6/3 32/5/3 30/7/3 29/8/3
f 29/8/4 30/7/4 26/9/4 25/10/4
f 27/11/5 31/6/5 29/8/5 25/12/5
f 32/5/6 28/13/6 26/14/6 30/7/6
f 33/1/1 34/2/1 36/3/1 35/4/1
f 35/4/2 36/3/2 40/5/2 39/6/2
f 39/6/3 40/5/3 38/7/3 37/8/3
f 37/8/4 38/7/4 34/9/4 33/10/4
f 35/11/5 39/6/5 37/8/5 33/12/5
f 40/5/6 36/13/6 34/14/6 38/7/6
f 41/1/1 42/2/1 44/3/1 43/4/1
f 43/4/2 44/3/2 48/5/2 47/6/2
f 47/6/3 48/5/3 46/7/3 45/8/3
f 45/8/4 46/7/4 42/9/4 41/10/4
f 43/11/5 47/6/5 45/8/5 41/12/5
f 48/5/6 44/13/6 42/14/6 46/7/6
